<svg width="42" height="42" viewBox="0 0 42 42" fill="none" xmlns="http://www.w3.org/2000/svg">
<path d="M11 12C12.5913 12 14.1174 11.3679 15.2426 10.2426C16.3679 9.11742 17 7.5913 17 6C17 4.4087 16.3679 2.88258 15.2426 1.75736C14.1174 0.632141 12.5913 0 11 0C9.4087 0 7.88258 0.632141 6.75736 1.75736C5.63214 2.88258 5 4.4087 5 6C5 7.5913 5.63214 9.11742 6.75736 10.2426C7.88258 11.3679 9.4087 12 11 12ZM0 17.536C0 15.58 1.582 14 3.536 14H13.07C12.3668 15.2156 11.9977 16.5956 12 18C11.9987 19.1352 12.2395 20.2576 12.7065 21.2922C13.1735 22.3269 13.8558 23.25 14.708 24H12.536C11.4088 24 10.3084 24.3439 9.38179 24.9857C8.45516 25.6276 7.74635 26.5368 7.35 27.592C4.354 26.86 2.496 25.226 1.402 23.406C0 21.072 0 18.672 0 18.254V17.536ZM28 18C28.0024 16.5956 27.6333 15.2156 26.93 14H36.464C38.42 14 40 15.582 40 17.536V18.256C40 18.67 40 21.072 38.6 23.406C37.504 25.226 35.646 26.86 32.65 27.592C32.2539 26.5366 31.5451 25.6272 30.6185 24.9854C29.6918 24.3435 28.5913 23.9998 27.464 24H25.292C26.1442 23.25 26.8265 22.3269 27.2935 21.2922C27.7605 20.2576 28.0013 19.1352 28 18ZM35 6C35 7.5913 34.3679 9.11742 33.2426 10.2426C32.1174 11.3679 30.5913 12 29 12C27.4087 12 25.8826 11.3679 24.7574 10.2426C23.6321 9.11742 23 7.5913 23 6C23 4.4087 23.6321 2.88258 24.7574 1.75736C25.8826 0.632141 27.4087 0 29 0C30.5913 0 32.1174 0.632141 33.2426 1.75736C34.3679 2.88258 35 4.4087 35 6ZM9 29.536C9 27.58 10.582 26 12.536 26H27.464C29.418 26 31 27.582 31 29.536V30.256C31 30.67 31 33.072 29.6 35.406C28.114 37.874 25.226 40 20 40C14.774 40 11.884 37.874 10.4 35.406C9 33.072 9 30.672 9 30.254V29.536ZM20 24C20.7879 24 21.5681 23.8448 22.2961 23.5433C23.0241 23.2417 23.6855 22.7998 24.2426 22.2426C24.7998 21.6855 25.2417 21.0241 25.5433 20.2961C25.8448 19.5681 26 18.7879 26 18C26 17.2121 25.8448 16.4319 25.5433 15.7039C25.2417 14.9759 24.7998 14.3145 24.2426 13.7574C23.6855 13.2002 23.0241 12.7582 22.2961 12.4567C21.5681 12.1552 20.7879 12 20 12C18.4087 12 16.8826 12.6321 15.7574 13.7574C14.6321 14.8826 14 16.4087 14 18C14 19.5913 14.6321 21.1174 15.7574 22.2426C16.8826 23.3679 18.4087 24 20 24Z" fill="#1C49C2"/>
<path d="M30 41C36.0751 41 41 36.0751 41 30C41 23.9249 36.0751 19 30 19C23.9249 19 19 23.9249 19 30C19 36.0751 23.9249 41 30 41Z" fill="#1C49C2" stroke="white" stroke-width="2"/>
<path d="M34.3598 28.689C34.3062 28.9103 34.2694 29.152 34.2661 29.3732C34.2594 29.7851 34.3497 30.1119 34.5002 30.2038C34.6441 30.2923 34.9551 30.2174 35.293 30.0098C35.6676 29.7851 36.0321 29.4277 36.2195 29.1077C36.3767 28.8388 36.4335 28.5324 36.38 28.2465C36.3298 27.9776 36.186 27.7597 35.9753 27.6303C35.8448 27.5521 35.6977 27.5112 35.5438 27.5112C35.4502 27.5112 35.3498 27.5282 35.2528 27.5589C34.9785 27.6474 34.7411 27.8414 34.5839 28.1103C34.4935 28.2635 34.4166 28.4677 34.3598 28.689Z" fill="white"/>
<path d="M28.5298 28.1137C28.7506 28.0456 28.9479 27.695 29.0449 27.1946C29.1486 26.6738 29.1319 26.0543 28.9947 25.6151C28.8844 25.2441 28.6536 24.9343 28.3492 24.7471C28.1585 24.628 27.9478 24.5667 27.7438 24.5667C27.6434 24.5667 27.5398 24.5837 27.4394 24.6144C26.8073 24.8118 26.4761 25.5811 26.7002 26.33C26.9745 27.2355 28.0314 28.2669 28.5298 28.1137Z" fill="white"/>
<path d="M32.7409 27.5418C33.0954 27.1334 33.3931 26.5819 33.5001 26.1326C33.5905 25.7479 33.5436 25.3564 33.3764 25.0297C33.2125 24.7199 32.9516 24.5088 32.6405 24.4305C32.5603 24.4101 32.4766 24.3999 32.393 24.3999C32.1622 24.3999 31.9314 24.4748 31.7207 24.6246C31.423 24.8356 31.2056 25.1624 31.1153 25.5505C30.8946 26.4866 31.2993 27.9537 31.8177 28.0797C32.0485 28.1341 32.3997 27.9299 32.7409 27.5418Z" fill="white"/>
<path d="M27.1718 32.2394C27.028 32.2837 26.8942 32.3484 26.7671 32.4335C26.0647 32.8964 25.8038 33.8291 26.1584 34.6018C26.3591 35.041 26.7169 35.3643 27.1685 35.5141C27.62 35.6639 28.095 35.6162 28.5097 35.3814C29.0483 35.075 29.8711 34.7618 30.3661 34.7618H30.4029C30.9046 34.7787 31.2776 35.0073 31.6039 35.2072L31.6104 35.2112L31.6107 35.2114C32.0888 35.504 32.4334 35.7149 33.1757 35.4086C33.557 35.2486 33.848 34.9286 33.9952 34.5099C34.1591 34.0368 34.1156 33.4887 33.8748 33.0462C33.6841 32.6956 33.3764 32.4232 33.0085 32.2769C32.5168 32.0828 32.1221 31.705 31.898 31.2114C31.8445 31.0957 31.7809 30.9799 31.704 30.8744C31.1789 30.1357 30.1989 29.8566 29.3727 30.214C28.9312 30.4046 28.59 30.7348 28.3793 31.1637C28.1284 31.6778 27.6903 32.0692 27.1718 32.2394Z" fill="white"/>
<path d="M23.8739 28.1103C23.6966 28.2771 23.5996 28.512 23.5996 28.7809H23.603V28.7945C23.6063 29.0839 23.7234 29.3732 23.9307 29.6047C24.1682 29.8702 24.6097 30.1391 25.0278 30.2753C25.4158 30.4012 25.747 30.4046 25.8774 30.2855C26.1651 30.02 25.8473 28.866 25.3355 28.2941C25.0914 28.0252 24.7703 27.8856 24.4659 27.8856C24.2452 27.8856 24.0378 27.9571 23.8739 28.1103Z" fill="white"/>
</svg>
