<svg width="179" height="60" viewBox="0 0 179 60" fill="none" xmlns="http://www.w3.org/2000/svg">
<path d="M82.2461 40H77.1328V19.9844H82.834C85.0488 19.9844 86.6211 20.0938 87.5508 20.3125C88.4622 20.5495 89.2233 20.9232 89.834 21.4336C90.5632 22.0443 91.1237 22.8008 91.5156 23.7031C91.9076 24.6237 92.1035 25.6491 92.1035 26.7793C92.1035 27.9824 91.9076 29.0306 91.5156 29.9238C91.1693 30.8262 90.6087 31.5736 89.834 32.166C89.278 32.6035 88.6081 32.918 87.8242 33.1094C87.1224 33.3008 85.901 33.3965 84.1602 33.3965H83.2305H82.2461V40ZM82.2461 28.9941H83.2852C84.5794 28.9941 85.4954 28.8073 86.0332 28.4336C86.5527 28.0872 86.8125 27.4811 86.8125 26.6152C86.8125 25.7858 86.5573 25.1934 86.0469 24.8379C85.5456 24.4733 84.6432 24.291 83.3398 24.291H82.2461V28.9941ZM104.053 31.3184C103.971 30.5527 103.674 29.9284 103.164 29.4453C102.654 28.9622 102.029 28.7207 101.291 28.7207C100.516 28.7207 99.8874 28.9349 99.4043 29.3633C98.903 29.8464 98.5885 30.498 98.4609 31.3184H104.053ZM108.852 34.0664H98.3516C98.3789 35.1419 98.6478 35.9622 99.1582 36.5273C99.6868 37.1107 100.452 37.4023 101.455 37.4023C102.184 37.4023 102.809 37.2611 103.328 36.9785C103.857 36.6777 104.24 36.2676 104.477 35.748L108.141 37.2246C107.712 38.2728 106.938 39.084 105.816 39.6582C104.704 40.2415 103.342 40.5332 101.729 40.5332C99.3223 40.5332 97.39 39.8587 95.9316 38.5098C94.4824 37.1973 93.7578 35.4427 93.7578 33.2461C93.7578 31.1042 94.4824 29.3132 95.9316 27.873C97.3809 26.4603 99.222 25.7539 101.455 25.7539C103.734 25.7539 105.534 26.4694 106.855 27.9004C107.53 28.6387 108.031 29.5 108.359 30.4844C108.688 31.4596 108.852 32.5762 108.852 33.834V34.0664ZM112.434 40L112.406 29.6367H110.342V26.1914H112.406V22.0762H117.232V26.1914H119.27V29.6367H117.232V40H112.434ZM121.895 40V19.9844H127.35V27.7637H134.623V19.9844H140.092V40H134.623V31.8516H127.35V40H121.895ZM158.166 26.1914V33.2461C158.166 34.8229 158.048 35.9714 157.811 36.6914C157.555 37.4388 157.127 38.1133 156.525 38.7148C155.951 39.3164 155.195 39.7721 154.256 40.082C153.363 40.3828 152.287 40.5332 151.029 40.5332C149.781 40.5332 148.719 40.3828 147.844 40.082C146.941 39.7904 146.167 39.3346 145.52 38.7148C144.927 38.1497 144.508 37.4844 144.262 36.7188C144.016 36.0078 143.893 34.8503 143.893 33.2461V26.1914H148.541V33.5605C148.541 34.7181 148.737 35.5475 149.129 36.0488C149.484 36.5775 150.1 36.8418 150.975 36.8418C151.84 36.8418 152.46 36.5866 152.834 36.0762C153.217 35.5658 153.408 34.7272 153.408 33.5605V26.1914H158.166ZM166.014 33.1094C166.014 34.2122 166.301 35.0645 166.875 35.666C167.404 36.2767 168.169 36.582 169.172 36.582C170.165 36.582 170.94 36.2767 171.496 35.666C172.052 35.0553 172.33 34.2031 172.33 33.1094C172.33 32.0247 172.052 31.1771 171.496 30.5664C170.931 29.9466 170.156 29.6367 169.172 29.6367C168.178 29.6367 167.413 29.9466 166.875 30.5664C166.301 31.168 166.014 32.0156 166.014 33.1094ZM161.693 18.8086H166.342V26.0273C166.342 26.7383 166.333 27.2259 166.314 27.4902C166.278 27.9551 166.242 28.2878 166.205 28.4883C166.779 27.4948 167.431 26.7975 168.16 26.3965C168.889 25.9681 169.842 25.7539 171.018 25.7539C172.859 25.7539 174.354 26.4238 175.502 27.7637C176.641 29.1217 177.211 30.9036 177.211 33.1094C177.211 35.3789 176.641 37.179 175.502 38.5098C174.354 39.8587 172.804 40.5332 170.854 40.5332C169.878 40.5332 169.017 40.3008 168.27 39.8359C167.495 39.3893 166.798 38.6966 166.178 37.7578V40H161.693V18.8086Z" fill="white"/>
<rect width="65" height="60" rx="10" fill="white"/>
<path d="M40.3846 25.3199V29.9798C40.3846 30.5978 40.644 31.1904 41.1056 31.6274C41.5672 32.0643 42.1933 32.3098 42.8462 32.3098H44.0769M44.0769 32.3098C45.3826 32.3098 46.6348 31.8188 47.5581 30.9449C48.4813 30.071 49 28.8857 49 27.6499V20.6599C49 20.042 48.7407 19.4494 48.279 19.0124C47.8174 18.5754 47.1913 18.33 46.5385 18.33H42.8462C42.0672 18.3293 41.2995 18.1536 40.6062 17.8174C38.256 16.6564 35.6507 16.034 33 16C30.3326 16.0267 27.7096 16.6494 25.3446 17.8174C24.664 18.1411 23.9154 18.3162 23.1538 18.33H19.4615C18.8087 18.33 18.1826 18.5754 17.721 19.0124C17.2593 19.4494 17 20.042 17 20.6599V27.6499C17 28.8857 17.5187 30.071 18.4419 30.9449C19.3652 31.8188 20.6174 32.3098 21.9231 32.3098M44.0769 32.3098L43.3138 35.9678C42.8445 38.2306 41.5593 40.2688 39.678 41.7339C37.7967 43.199 35.4362 44 33 44C30.5638 44 28.2033 43.199 26.322 41.7339C24.4407 40.2688 23.1555 38.2306 22.6862 35.9678L21.9231 32.3098M21.9231 32.3098H23.1538C23.8067 32.3098 24.4328 32.0643 24.8944 31.6274C25.356 31.1904 25.6154 30.5978 25.6154 29.9798V25.3199M31.7692 36.9697H34.2308" stroke="#1C49C2" stroke-width="3" stroke-linecap="round" stroke-linejoin="round"/>
</svg>
